<svg xmlns="http://www.w3.org/2000/svg">

<symbol viewBox="0 0 30.995329 31.129333" id="class"><path clip-rule="evenodd" d="M2.106 12.969h4.646v18.16H2.106c-.7 0-1.267-.54-1.267-1.205V14.175c0-.666.567-1.206 1.267-1.206zM28.78 27.73c-.295 2.263-1.807 3.4-4.495 3.4H10.217c-1.911 0-3.465-1.463-3.465-3.262V12.991c4.46-.435 6.691-1.993 6.691-6.18V4.803c0-2.116 1.8-3.83 4.022-3.83.846 0 1.671.254 2.357.726.945.653 1.547 1.888 1.547 3.667v5.81c0 .494.837.899 1.673.899h4.488c1.89 0 3.423 1.423 3.465 3.192.028 1.18-.71 4.831-2.215 12.462z" stroke="#fff" stroke-width="1.608" stroke-linecap="round" stroke-linejoin="round"/></symbol>

<symbol viewBox="0 0 18.986 34.28" id="dollar"><path d="M10.14 1.845V34.28M17.512 7.742H6.455a5.16 5.16 0 1 0 0 10.32h7.371a5.16 5.16 0 1 1 0 10.321H1.295" stroke="#fff" stroke-width="2.413" stroke-linecap="round" stroke-linejoin="round"/></symbol>

<symbol viewBox="0 0 28.794668 24.673334" id="email"><path d="M24.55 24.673H5.45a4.257 4.257 0 0 1-4.245-4.245V5.572a4.257 4.257 0 0 1 4.244-4.245h19.102a4.257 4.257 0 0 1 4.244 4.245v14.856a4.257 4.257 0 0 1-4.245 4.245z" stroke="#fff" stroke-width="2" stroke-miterlimit="10" stroke-linecap="round" stroke-linejoin="round"/><path d="M1.205 6.633 15 15.123l13.795-8.49" stroke="#fff" stroke-width="2" stroke-miterlimit="10" stroke-linecap="round" stroke-linejoin="round"/></symbol>
<symbol viewBox="0 0 7 14" id="facebook"><path d="M6.563 7.467 7 5.133H4.812V3.268c0-.72.343-.934 1.313-.934H7V0H5.25C3.469 0 2.187 1.136 2.187 3.267v1.866H0v2.334h2.188V14h2.624V7.467h1.75z" fill="#75757F"/></symbol>
<symbol viewBox="0 0 14.5 13.750667" id="in"><path d="M3.205 1.75a1.5 1.5 0 1 1-3-.002 1.5 1.5 0 0 1 3 .002zm.045 2.61h-3v9.39h3V4.36zm4.74 0H5.005v9.39H7.96V8.822c0-2.745 3.577-3 3.577 0v4.928H14.5V7.802c0-4.627-5.295-4.455-6.54-2.182l.03-1.26z" fill="#75757F"/></symbol>

<symbol viewBox="0 0 16 16" id="instagram"><path fill-rule="evenodd" clip-rule="evenodd" d="M4.8 0h6.4A4.8 4.8 0 0 1 16 4.8v6.4a4.8 4.8 0 0 1-4.8 4.8H4.8A4.8 4.8 0 0 1 0 11.2V4.8A4.8 4.8 0 0 1 4.8 0zm0 1.6a3.2 3.2 0 0 0-3.2 3.2v6.4a3.2 3.2 0 0 0 3.2 3.2h6.4a3.2 3.2 0 0 0 3.2-3.2V4.8a3.2 3.2 0 0 0-3.2-3.2H4.8zM8 12a4 4 0 1 1 0-8 4 4 0 0 1 0 8zm0-1.6a2.4 2.4 0 1 0 0-4.8 2.4 2.4 0 0 0 0 4.8zm4-5.6a.8.8 0 1 1 0-1.6.8.8 0 0 1 0 1.6z" fill="#75757F"/></symbol>

<symbol viewBox="0 0 14.998666 13.000999" id="mark"><path d="M14.706 3.294c.39.39.39 1.025 0 1.415l-8 8c-.39.391-1.025.391-1.415 0l-4-4a1.002 1.002 0 0 1 1.415-1.415L6 10.584l7.294-7.29c.39-.39 1.025-.39 1.415 0h-.003z" fill="#5CC97B"/></symbol>

<symbol viewBox="0 0 27.884924 28.307302" id="search"><path fill-rule="evenodd" clip-rule="evenodd" d="M16.898 20.03a10.841 10.841 0 0 1-6.449 1.79C4.44 21.574-.23 16.5.018 10.49.266 4.48 5.338-.189 11.348.06c6.008.247 10.68 5.32 10.431 11.329a10.84 10.84 0 0 1-1.89 5.699l7.336 7.123a2.492 2.492 0 0 1-.057 3.439l-.043.04-.045.038a2.49 2.49 0 0 1-3.43-.223l-6.752-7.476zm-6.345-.721a8.377 8.377 0 1 1 .692-16.74 8.377 8.377 0 0 1-.692 16.74z" fill="#fff"/></symbol>

<symbol viewBox="0 0 19.145332 17.834667" id="star"><g clip-path="url(#a)"><path fill-rule="evenodd" clip-rule="evenodd" d="m9.813 14.055-5.768 3.78 1.812-6.654L.48 6.864l6.888-.333L9.812.083l2.445 6.448 6.888.333-5.377 4.317 1.812 6.653-5.768-3.779z" fill="#FFC54F"/></g><defs><clipPath id="a"><path fill="#fff" transform="translate(0 .083)" d="M0 0h19.625v17.99H0z"/></clipPath></defs></symbol>

<symbol viewBox="0 0 14 12.000402" id="twitter"><path d="M12.359 1.901A2.889 2.889 0 0 0 13.607.229a6.522 6.522 0 0 1-1.828.708A2.646 2.646 0 0 0 9.71 0c-.811 0-1.496.3-2.056.886-.556.59-.836 1.305-.836 2.14 0 .255.03.482.09.674C4.517 3.614 2.537 2.565.977.547A3.17 3.17 0 0 0 .58 2.064c0 1.069.427 1.916 1.28 2.538a3.052 3.052 0 0 1-1.28-.386c0 .764.213 1.401.638 1.963.427.555.975.91 1.645 1.06a2.91 2.91 0 0 1-.761.098c-.243 0-.415-.022-.517-.068a2.907 2.907 0 0 0 1.004 1.513 2.745 2.745 0 0 0 1.674.61 5.412 5.412 0 0 1-3.56 1.284c-.329 0-.561-.005-.702-.031C1.32 11.55 2.789 12 4.414 12c1.664 0 3.134-.445 4.413-1.336 1.28-.886 2.224-1.98 2.83-3.266a9.263 9.263 0 0 0 .912-4.021v-.385A6.265 6.265 0 0 0 14 1.414a6.072 6.072 0 0 1-1.641.487z" fill="#75757F"/></symbol>

<symbol viewBox="0 0 6.7506666 19.129333" id="src-11"><path clip-rule="evenodd" d="M2.106.969h4.646v18.16H2.106c-.7 0-1.267-.54-1.267-1.205V2.175c0-.666.567-1.206 1.267-1.206z" stroke="#fff" stroke-width="1.608" stroke-linecap="round" stroke-linejoin="round"/></symbol>

<symbol viewBox="0 0 16 12" id="youtube"><path d="M15.666 1.878c-.184-.74-.726-1.322-1.415-1.52C13.003 0 8 0 8 0S2.997 0 1.749.359C1.06.557.519 1.139.334 1.878 0 3.218 0 6.012 0 6.012s0 2.795.334 4.135A2.05 2.05 0 0 0 1.75 11.64C2.997 12 8 12 8 12s5.003 0 6.251-.359a2.05 2.05 0 0 0 1.415-1.494C16 8.807 16 6.012 16 6.012s0-2.795-.334-4.134zM6.364 8.55V3.475l4.181 2.537L6.364 8.55z" fill="#75757F"/></symbol></svg>